solid Vec<Triangle>
  facet normal 1.000000 0.000000 0.000000
    outer loop
      vertex 0.000000 0.000000 0.417636
      vertex 0.000000 1.200000 0.877878
      vertex 0.000000 0.000000 2.994913
    endloop
  endfacet
  facet normal 1.000000 0.000000 -0.000000
    outer loop
      vertex 0.000000 1.200000 0.877878
      vertex 0.000000 1.200000 2.994913
      vertex 0.000000 0.000000 2.994913
    endloop
  endfacet
  facet normal 1.000000 -0.000000 0.000000
    outer loop
      vertex 0.000000 1.200000 0.877878
      vertex 0.000000 2.400000 0.121136
      vertex 0.000000 1.200000 2.994913
    endloop
  endfacet
  facet normal 1.000000 0.000000 -0.000000
    outer loop
      vertex 0.000000 2.400000 0.121136
      vertex 0.000000 2.400000 2.994913
      vertex 0.000000 1.200000 2.994913
    endloop
  endfacet
  facet normal 1.000000 -0.000000 0.000000
    outer loop
      vertex 0.000000 2.400000 0.121136
      vertex 0.000000 3.600000 0.050032
      vertex 0.000000 2.400000 2.994913
    endloop
  endfacet
  facet normal 1.000000 0.000000 -0.000000
    outer loop
      vertex 0.000000 3.600000 0.050032
      vertex 0.000000 3.600000 2.994913
      vertex 0.000000 2.400000 2.994913
    endloop
  endfacet
  facet normal 1.000000 0.000000 0.000000
    outer loop
      vertex 0.000000 3.600000 0.050032
      vertex 0.000000 4.800000 0.873908
      vertex 0.000000 3.600000 2.994913
    endloop
  endfacet
  facet normal 1.000000 0.000000 -0.000000
    outer loop
      vertex 0.000000 4.800000 0.873908
      vertex 0.000000 4.800000 2.994913
      vertex 0.000000 3.600000 2.994913
    endloop
  endfacet
  facet normal 1.000000 -0.000000 0.000000
    outer loop
      vertex 0.000000 4.800000 0.873908
      vertex 0.000000 6.000000 0.513120
      vertex 0.000000 4.800000 2.994913
    endloop
  endfacet
  facet normal 1.000000 0.000000 -0.000000
    outer loop
      vertex 0.000000 6.000000 0.513120
      vertex 0.000000 6.000000 2.994913
      vertex 0.000000 4.800000 2.994913
    endloop
  endfacet
endsolid Vec<Triangle>
