solid Vec<Triangle>
  facet normal 0.000000 -1.000000 0.000000
    outer loop
      vertex 0.000000 6.000000 0.513120
      vertex 1.100000 6.000000 0.994913
      vertex 0.000000 6.000000 2.994913
    endloop
  endfacet
  facet normal 0.000000 -1.000000 0.000000
    outer loop
      vertex 1.100000 6.000000 0.994913
      vertex 1.100000 6.000000 2.994913
      vertex 0.000000 6.000000 2.994913
    endloop
  endfacet
  facet normal 0.000000 -1.000000 0.000000
    outer loop
      vertex 1.100000 6.000000 0.994913
      vertex 2.200000 6.000000 0.589789
      vertex 1.100000 6.000000 2.994913
    endloop
  endfacet
  facet normal 0.000000 -1.000000 0.000000
    outer loop
      vertex 2.200000 6.000000 0.589789
      vertex 2.200000 6.000000 2.994913
      vertex 1.100000 6.000000 2.994913
    endloop
  endfacet
  facet normal 0.000000 -1.000000 0.000000
    outer loop
      vertex 2.200000 6.000000 0.589789
      vertex 3.300000 6.000000 0.598796
      vertex 2.200000 6.000000 2.994913
    endloop
  endfacet
  facet normal 0.000000 -1.000000 0.000000
    outer loop
      vertex 3.300000 6.000000 0.598796
      vertex 3.300000 6.000000 2.994913
      vertex 2.200000 6.000000 2.994913
    endloop
  endfacet
  facet normal 0.000000 -1.000000 0.000000
    outer loop
      vertex 3.300000 6.000000 0.598796
      vertex 4.400000 6.000000 0.847326
      vertex 3.300000 6.000000 2.994913
    endloop
  endfacet
  facet normal 0.000000 -1.000000 0.000000
    outer loop
      vertex 4.400000 6.000000 0.847326
      vertex 4.400000 6.000000 2.994913
      vertex 3.300000 6.000000 2.994913
    endloop
  endfacet
  facet normal 0.000000 -1.000000 0.000000
    outer loop
      vertex 4.400000 6.000000 0.847326
      vertex 5.500000 6.000000 0.009600
      vertex 4.400000 6.000000 2.994913
    endloop
  endfacet
  facet normal 0.000000 -1.000000 0.000000
    outer loop
      vertex 5.500000 6.000000 0.009600
      vertex 5.500000 6.000000 2.994913
      vertex 4.400000 6.000000 2.994913
    endloop
  endfacet
  facet normal 0.000000 -1.000000 0.000000
    outer loop
      vertex 5.500000 6.000000 0.009600
      vertex 6.600000 6.000000 0.513120
      vertex 5.500000 6.000000 2.994913
    endloop
  endfacet
  facet normal 0.000000 -1.000000 0.000000
    outer loop
      vertex 6.600000 6.000000 0.513120
      vertex 6.600000 6.000000 2.994913
      vertex 5.500000 6.000000 2.994913
    endloop
  endfacet
  facet normal 0.000000 -1.000000 0.000000
    outer loop
      vertex 6.600000 6.000000 0.513120
      vertex 7.700000 6.000000 0.994913
      vertex 6.600000 6.000000 2.994913
    endloop
  endfacet
  facet normal 0.000000 -1.000000 0.000000
    outer loop
      vertex 7.700000 6.000000 0.994913
      vertex 7.700000 6.000000 2.994913
      vertex 6.600000 6.000000 2.994913
    endloop
  endfacet
endsolid Vec<Triangle>
