solid Vec<Triangle>
  facet normal 1.000000 0.000000 0.000000
    outer loop
      vertex 7.700000 0.000000 0.326367
      vertex 7.700000 1.200000 0.595378
      vertex 7.700000 0.000000 2.994913
    endloop
  endfacet
  facet normal 1.000000 0.000000 -0.000000
    outer loop
      vertex 7.700000 1.200000 0.595378
      vertex 7.700000 1.200000 2.994913
      vertex 7.700000 0.000000 2.994913
    endloop
  endfacet
  facet normal 1.000000 0.000000 0.000000
    outer loop
      vertex 7.700000 1.200000 0.595378
      vertex 7.700000 2.400000 0.796184
      vertex 7.700000 1.200000 2.994913
    endloop
  endfacet
  facet normal 1.000000 0.000000 -0.000000
    outer loop
      vertex 7.700000 2.400000 0.796184
      vertex 7.700000 2.400000 2.994913
      vertex 7.700000 1.200000 2.994913
    endloop
  endfacet
  facet normal 1.000000 0.000000 0.000000
    outer loop
      vertex 7.700000 2.400000 0.796184
      vertex 7.700000 3.600000 0.807457
      vertex 7.700000 2.400000 2.994913
    endloop
  endfacet
  facet normal 1.000000 0.000000 -0.000000
    outer loop
      vertex 7.700000 3.600000 0.807457
      vertex 7.700000 3.600000 2.994913
      vertex 7.700000 2.400000 2.994913
    endloop
  endfacet
  facet normal 1.000000 -0.000000 0.000000
    outer loop
      vertex 7.700000 3.600000 0.807457
      vertex 7.700000 4.800000 0.009600
      vertex 7.700000 3.600000 2.994913
    endloop
  endfacet
  facet normal 1.000000 0.000000 -0.000000
    outer loop
      vertex 7.700000 4.800000 0.009600
      vertex 7.700000 4.800000 2.994913
      vertex 7.700000 3.600000 2.994913
    endloop
  endfacet
  facet normal 1.000000 0.000000 0.000000
    outer loop
      vertex 7.700000 4.800000 0.009600
      vertex 7.700000 6.000000 0.994913
      vertex 7.700000 4.800000 2.994913
    endloop
  endfacet
  facet normal 1.000000 0.000000 -0.000000
    outer loop
      vertex 7.700000 6.000000 0.994913
      vertex 7.700000 6.000000 2.994913
      vertex 7.700000 4.800000 2.994913
    endloop
  endfacet
endsolid Vec<Triangle>
