solid Vec<Triangle>
  facet normal 1.100159 49.501038 625.000000
    outer loop
      vertex 677449.000000 4581389.000000 514.084045
      vertex 677474.000000 4581389.000000 514.040039
      vertex 677449.000000 4581414.000000 512.104004
    endloop
  endfacet
  facet normal 27.299500 75.700378 625.000000
    outer loop
      vertex 677474.000000 4581389.000000 514.040039
      vertex 677474.000000 4581414.000000 511.012024
      vertex 677449.000000 4581414.000000 512.104004
    endloop
  endfacet
  facet normal 27.299500 100.299835 625.000000
    outer loop
      vertex 677449.000000 4581414.000000 512.104004
      vertex 677474.000000 4581414.000000 511.012024
      vertex 677449.000000 4581439.000000 508.092010
    endloop
  endfacet
  facet normal 86.799622 159.799957 625.000000
    outer loop
      vertex 677474.000000 4581414.000000 511.012024
      vertex 677474.000000 4581439.000000 504.620026
      vertex 677449.000000 4581439.000000 508.092010
    endloop
  endfacet
  facet normal 86.799622 391.899872 625.000000
    outer loop
      vertex 677449.000000 4581439.000000 508.092010
      vertex 677474.000000 4581439.000000 504.620026
      vertex 677449.000000 4581464.000000 492.416016
    endloop
  endfacet
  facet normal 38.299561 343.399811 625.000000
    outer loop
      vertex 677474.000000 4581439.000000 504.620026
      vertex 677474.000000 4581464.000000 490.884033
      vertex 677449.000000 4581464.000000 492.416016
    endloop
  endfacet
  facet normal 38.299561 -304.078674 625.000000
    outer loop
      vertex 677449.000000 4581464.000000 492.416016
      vertex 677474.000000 4581464.000000 490.884033
      vertex 677449.000000 4581489.000000 504.579163
    endloop
  endfacet
  facet normal -116.745758 -459.123993 625.000000
    outer loop
      vertex 677474.000000 4581464.000000 490.884033
      vertex 677474.000000 4581489.000000 509.248993
      vertex 677449.000000 4581489.000000 504.579163
    endloop
  endfacet
  facet normal -116.745758 -116.674805 625.000000
    outer loop
      vertex 677449.000000 4581489.000000 504.579163
      vertex 677474.000000 4581489.000000 509.248993
      vertex 677449.000000 4581514.000000 509.246155
    endloop
  endfacet
  facet normal -42.700195 -42.629242 625.000000
    outer loop
      vertex 677474.000000 4581489.000000 509.248993
      vertex 677474.000000 4581514.000000 510.954163
      vertex 677449.000000 4581514.000000 509.246155
    endloop
  endfacet
  facet normal -42.700195 -41.846466 625.000000
    outer loop
      vertex 677449.000000 4581514.000000 509.246155
      vertex 677474.000000 4581514.000000 510.954163
      vertex 677449.000000 4581539.000000 510.920013
    endloop
  endfacet
  facet normal -19.599915 -18.746185 625.000000
    outer loop
      vertex 677474.000000 4581514.000000 510.954163
      vertex 677474.000000 4581539.000000 511.704010
      vertex 677449.000000 4581539.000000 510.920013
    endloop
  endfacet
  facet normal 25.199890 75.700378 625.000000
    outer loop
      vertex 677474.000000 4581389.000000 514.040039
      vertex 677499.000000 4581389.000000 513.032043
      vertex 677474.000000 4581414.000000 511.012024
    endloop
  endfacet
  facet normal 43.699646 94.200134 625.000000
    outer loop
      vertex 677499.000000 4581389.000000 513.032043
      vertex 677499.000000 4581414.000000 509.264038
      vertex 677474.000000 4581414.000000 511.012024
    endloop
  endfacet
  facet normal 43.699646 159.799957 625.000000
    outer loop
      vertex 677474.000000 4581414.000000 511.012024
      vertex 677499.000000 4581414.000000 509.264038
      vertex 677474.000000 4581439.000000 504.620026
    endloop
  endfacet
  facet normal 109.999847 226.100159 625.000000
    outer loop
      vertex 677499.000000 4581414.000000 509.264038
      vertex 677499.000000 4581439.000000 500.220032
      vertex 677474.000000 4581439.000000 504.620026
    endloop
  endfacet
  facet normal 109.999847 343.399811 625.000000
    outer loop
      vertex 677474.000000 4581439.000000 504.620026
      vertex 677499.000000 4581439.000000 500.220032
      vertex 677474.000000 4581464.000000 490.884033
    endloop
  endfacet
  facet normal 12.300110 245.700073 625.000000
    outer loop
      vertex 677499.000000 4581439.000000 500.220032
      vertex 677499.000000 4581464.000000 490.392029
      vertex 677474.000000 4581464.000000 490.884033
    endloop
  endfacet
  facet normal 12.300110 -459.123993 625.000000
    outer loop
      vertex 677474.000000 4581464.000000 490.884033
      vertex 677499.000000 4581464.000000 490.392029
      vertex 677474.000000 4581489.000000 509.248993
    endloop
  endfacet
  facet normal -56.941223 -528.365326 625.000000
    outer loop
      vertex 677499.000000 4581464.000000 490.392029
      vertex 677499.000000 4581489.000000 511.526642
      vertex 677474.000000 4581489.000000 509.248993
    endloop
  endfacet
  facet normal -56.941223 -42.629242 625.000000
    outer loop
      vertex 677474.000000 4581489.000000 509.248993
      vertex 677499.000000 4581489.000000 511.526642
      vertex 677474.000000 4581514.000000 510.954163
    endloop
  endfacet
  facet normal -47.729492 -33.417511 625.000000
    outer loop
      vertex 677499.000000 4581489.000000 511.526642
      vertex 677499.000000 4581514.000000 512.863342
      vertex 677474.000000 4581514.000000 510.954163
    endloop
  endfacet
  facet normal -47.729492 -18.746185 625.000000
    outer loop
      vertex 677474.000000 4581514.000000 510.954163
      vertex 677499.000000 4581514.000000 512.863342
      vertex 677474.000000 4581539.000000 511.704010
    endloop
  endfacet
  facet normal -30.400848 -1.417542 625.000000
    outer loop
      vertex 677499.000000 4581514.000000 512.863342
      vertex 677499.000000 4581539.000000 512.920044
      vertex 677474.000000 4581539.000000 511.704010
    endloop
  endfacet
  facet normal 7.200623 94.200134 625.000000
    outer loop
      vertex 677499.000000 4581389.000000 513.032043
      vertex 677524.000000 4581389.000000 512.744019
      vertex 677499.000000 4581414.000000 509.264038
    endloop
  endfacet
  facet normal -34.199524 52.799988 625.000000
    outer loop
      vertex 677524.000000 4581389.000000 512.744019
      vertex 677524.000000 4581414.000000 510.632019
      vertex 677499.000000 4581414.000000 509.264038
    endloop
  endfacet
  facet normal -34.199524 226.100159 625.000000
    outer loop
      vertex 677499.000000 4581414.000000 509.264038
      vertex 677524.000000 4581414.000000 510.632019
      vertex 677499.000000 4581439.000000 500.220032
    endloop
  endfacet
  facet normal -104.999542 155.300140 625.000000
    outer loop
      vertex 677524.000000 4581414.000000 510.632019
      vertex 677524.000000 4581439.000000 504.420013
      vertex 677499.000000 4581439.000000 500.220032
    endloop
  endfacet
  facet normal -104.999542 245.700073 625.000000
    outer loop
      vertex 677499.000000 4581439.000000 500.220032
      vertex 677524.000000 4581439.000000 504.420013
      vertex 677499.000000 4581464.000000 490.392029
    endloop
  endfacet
  facet normal 7.299805 357.999420 625.000000
    outer loop
      vertex 677524.000000 4581439.000000 504.420013
      vertex 677524.000000 4581464.000000 490.100037
      vertex 677499.000000 4581464.000000 490.392029
    endloop
  endfacet
  facet normal 7.299805 -528.365326 625.000000
    outer loop
      vertex 677499.000000 4581464.000000 490.392029
      vertex 677524.000000 4581464.000000 490.100037
      vertex 677499.000000 4581489.000000 511.526642
    endloop
  endfacet
  facet normal 235.673523 -299.991608 625.000000
    outer loop
      vertex 677524.000000 4581464.000000 490.100037
      vertex 677524.000000 4581489.000000 502.099701
      vertex 677499.000000 4581489.000000 511.526642
    endloop
  endfacet
  facet normal 235.673523 -33.417511 625.000000
    outer loop
      vertex 677499.000000 4581489.000000 511.526642
      vertex 677524.000000 4581489.000000 502.099701
      vertex 677499.000000 4581514.000000 512.863342
    endloop
  endfacet
  facet normal -21.229553 -290.320587 625.000000
    outer loop
      vertex 677524.000000 4581489.000000 502.099701
      vertex 677524.000000 4581514.000000 513.712524
      vertex 677499.000000 4581514.000000 512.863342
    endloop
  endfacet
  facet normal -21.229553 -1.417542 625.000000
    outer loop
      vertex 677499.000000 4581514.000000 512.863342
      vertex 677524.000000 4581514.000000 513.712524
      vertex 677499.000000 4581539.000000 512.920044
    endloop
  endfacet
  facet normal -39.698792 -19.886780 625.000000
    outer loop
      vertex 677524.000000 4581514.000000 513.712524
      vertex 677524.000000 4581539.000000 514.507996
      vertex 677499.000000 4581539.000000 512.920044
    endloop
  endfacet
  facet normal -37.249756 52.799988 625.000000
    outer loop
      vertex 677524.000000 4581389.000000 512.744019
      vertex 677549.000000 4581389.000000 514.234009
      vertex 677524.000000 4581414.000000 510.632019
    endloop
  endfacet
  facet normal -93.249512 -3.199768 625.000000
    outer loop
      vertex 677549.000000 4581389.000000 514.234009
      vertex 677549.000000 4581414.000000 514.362000
      vertex 677524.000000 4581414.000000 510.632019
    endloop
  endfacet
  facet normal -93.249512 155.300140 625.000000
    outer loop
      vertex 677524.000000 4581414.000000 510.632019
      vertex 677549.000000 4581414.000000 514.362000
      vertex 677524.000000 4581439.000000 504.420013
    endloop
  endfacet
  facet normal -220.825958 27.723694 625.000000
    outer loop
      vertex 677549.000000 4581414.000000 514.362000
      vertex 677549.000000 4581439.000000 513.253052
      vertex 677524.000000 4581439.000000 504.420013
    endloop
  endfacet
  facet normal -220.825958 357.999420 625.000000
    outer loop
      vertex 677524.000000 4581439.000000 504.420013
      vertex 677549.000000 4581439.000000 513.253052
      vertex 677524.000000 4581464.000000 490.100037
    endloop
  endfacet
  facet normal 14.324951 593.150330 625.000000
    outer loop
      vertex 677549.000000 4581439.000000 513.253052
      vertex 677549.000000 4581464.000000 489.527039
      vertex 677524.000000 4581464.000000 490.100037
    endloop
  endfacet
  facet normal 14.324951 -299.991608 625.000000
    outer loop
      vertex 677524.000000 4581464.000000 490.100037
      vertex 677549.000000 4581464.000000 489.527039
      vertex 677524.000000 4581489.000000 502.099701
    endloop
  endfacet
  facet normal 309.165955 -5.150604 625.000000
    outer loop
      vertex 677549.000000 4581464.000000 489.527039
      vertex 677549.000000 4581489.000000 489.733063
      vertex 677524.000000 4581489.000000 502.099701
    endloop
  endfacet
  facet normal 309.165955 -290.320587 625.000000
    outer loop
      vertex 677524.000000 4581489.000000 502.099701
      vertex 677549.000000 4581489.000000 489.733063
      vertex 677524.000000 4581514.000000 513.712524
    endloop
  endfacet
  facet normal 285.033417 -314.453125 625.000000
    outer loop
      vertex 677549.000000 4581489.000000 489.733063
      vertex 677549.000000 4581514.000000 502.311188
      vertex 677524.000000 4581514.000000 513.712524
    endloop
  endfacet
  facet normal 285.033417 -19.886780 625.000000
    outer loop
      vertex 677524.000000 4581514.000000 513.712524
      vertex 677549.000000 4581514.000000 502.311188
      vertex 677524.000000 4581539.000000 514.507996
    endloop
  endfacet
  facet normal -14.976501 -319.896698 625.000000
    outer loop
      vertex 677549.000000 4581514.000000 502.311188
      vertex 677549.000000 4581539.000000 515.107056
      vertex 677524.000000 4581539.000000 514.507996
    endloop
  endfacet
  facet normal -82.850647 -3.199768 625.000000
    outer loop
      vertex 677549.000000 4581389.000000 514.234009
      vertex 677574.000000 4581389.000000 517.548035
      vertex 677549.000000 4581414.000000 514.362000
    endloop
  endfacet
  facet normal -66.050720 13.600159 625.000000
    outer loop
      vertex 677574.000000 4581389.000000 517.548035
      vertex 677574.000000 4581414.000000 517.004028
      vertex 677549.000000 4581414.000000 514.362000
    endloop
  endfacet
  facet normal -66.050720 27.723694 625.000000
    outer loop
      vertex 677549.000000 4581414.000000 514.362000
      vertex 677574.000000 4581414.000000 517.004028
      vertex 677549.000000 4581439.000000 513.253052
    endloop
  endfacet
  facet normal -62.225342 31.549072 625.000000
    outer loop
      vertex 677574.000000 4581414.000000 517.004028
      vertex 677574.000000 4581439.000000 515.742065
      vertex 677549.000000 4581439.000000 513.253052
    endloop
  endfacet
  facet normal -62.225342 593.150330 625.000000
    outer loop
      vertex 677549.000000 4581439.000000 513.253052
      vertex 677574.000000 4581439.000000 515.742065
      vertex 677549.000000 4581464.000000 489.527039
    endloop
  endfacet
  facet normal -242.024994 413.350677 625.000000
    outer loop
      vertex 677574.000000 4581439.000000 515.742065
      vertex 677574.000000 4581464.000000 499.208038
      vertex 677549.000000 4581464.000000 489.527039
    endloop
  endfacet
  facet normal -242.024994 -5.150604 625.000000
    outer loop
      vertex 677549.000000 4581464.000000 489.527039
      vertex 677574.000000 4581464.000000 499.208038
      vertex 677549.000000 4581489.000000 489.733063
    endloop
  endfacet
  facet normal 18.943787 255.818176 625.000000
    outer loop
      vertex 677574.000000 4581464.000000 499.208038
      vertex 677574.000000 4581489.000000 488.975311
      vertex 677549.000000 4581489.000000 489.733063
    endloop
  endfacet
  facet normal 18.943787 -314.453125 625.000000
    outer loop
      vertex 677549.000000 4581489.000000 489.733063
      vertex 677574.000000 4581489.000000 488.975311
      vertex 677549.000000 4581514.000000 502.311188
    endloop
  endfacet
  facet normal 311.670685 -21.726227 625.000000
    outer loop
      vertex 677574.000000 4581489.000000 488.975311
      vertex 677574.000000 4581514.000000 489.844360
      vertex 677549.000000 4581514.000000 502.311188
    endloop
  endfacet
  facet normal 311.670685 -319.896698 625.000000
    outer loop
      vertex 677549.000000 4581514.000000 502.311188
      vertex 677574.000000 4581514.000000 489.844360
      vertex 677549.000000 4581539.000000 515.107056
    endloop
  endfacet
  facet normal 271.051025 -360.516357 625.000000
    outer loop
      vertex 677574.000000 4581514.000000 489.844360
      vertex 677574.000000 4581539.000000 504.265015
      vertex 677549.000000 4581539.000000 515.107056
    endloop
  endfacet
  facet normal -28.300476 13.600159 625.000000
    outer loop
      vertex 677574.000000 4581389.000000 517.548035
      vertex 677599.000000 4581389.000000 518.680054
      vertex 677574.000000 4581414.000000 517.004028
    endloop
  endfacet
  facet normal -28.900146 13.000488 625.000000
    outer loop
      vertex 677599.000000 4581389.000000 518.680054
      vertex 677599.000000 4581414.000000 518.160034
      vertex 677574.000000 4581414.000000 517.004028
    endloop
  endfacet
  facet normal -28.900146 31.549072 625.000000
    outer loop
      vertex 677574.000000 4581414.000000 517.004028
      vertex 677599.000000 4581414.000000 518.160034
      vertex 677574.000000 4581439.000000 515.742065
    endloop
  endfacet
  facet normal -23.149109 37.300110 625.000000
    outer loop
      vertex 677599.000000 4581414.000000 518.160034
      vertex 677599.000000 4581439.000000 516.668030
      vertex 677574.000000 4581439.000000 515.742065
    endloop
  endfacet
  facet normal -23.149109 413.350677 625.000000
    outer loop
      vertex 677574.000000 4581439.000000 515.742065
      vertex 677599.000000 4581439.000000 516.668030
      vertex 677574.000000 4581464.000000 499.208038
    endloop
  endfacet
  facet normal -273.799896 162.699890 625.000000
    outer loop
      vertex 677599.000000 4581439.000000 516.668030
      vertex 677599.000000 4581464.000000 510.160034
      vertex 677574.000000 4581464.000000 499.208038
    endloop
  endfacet
  facet normal -273.799896 255.818176 625.000000
    outer loop
      vertex 677574.000000 4581464.000000 499.208038
      vertex 677599.000000 4581464.000000 510.160034
      vertex 677574.000000 4581489.000000 488.975311
    endloop
  endfacet
  facet normal -37.122345 492.495728 625.000000
    outer loop
      vertex 677599.000000 4581464.000000 510.160034
      vertex 677599.000000 4581489.000000 490.460205
      vertex 677574.000000 4581489.000000 488.975311
    endloop
  endfacet
  facet normal -37.122345 -21.726227 625.000000
    outer loop
      vertex 677574.000000 4581489.000000 488.975311
      vertex 677599.000000 4581489.000000 490.460205
      vertex 677574.000000 4581514.000000 489.844360
    endloop
  endfacet
  facet normal 33.384705 48.780823 625.000000
    outer loop
      vertex 677599.000000 4581489.000000 490.460205
      vertex 677599.000000 4581514.000000 488.508972
      vertex 677574.000000 4581514.000000 489.844360
    endloop
  endfacet
  facet normal 33.384705 -360.516357 625.000000
    outer loop
      vertex 677574.000000 4581514.000000 489.844360
      vertex 677599.000000 4581514.000000 488.508972
      vertex 677574.000000 4581539.000000 504.265015
    endloop
  endfacet
  facet normal -90.675354 -484.576416 625.000000
    outer loop
      vertex 677599.000000 4581514.000000 488.508972
      vertex 677599.000000 4581539.000000 507.892029
      vertex 677574.000000 4581539.000000 504.265015
    endloop
  endfacet
  facet normal 41.101074 13.000488 625.000000
    outer loop
      vertex 677599.000000 4581389.000000 518.680054
      vertex 677624.000000 4581389.000000 517.036011
      vertex 677599.000000 4581414.000000 518.160034
    endloop
  endfacet
  facet normal 324.900055 296.799469 625.000000
    outer loop
      vertex 677624.000000 4581389.000000 517.036011
      vertex 677624.000000 4581414.000000 505.164032
      vertex 677599.000000 4581414.000000 518.160034
    endloop
  endfacet
  facet normal 324.900055 37.300110 625.000000
    outer loop
      vertex 677599.000000 4581414.000000 518.160034
      vertex 677624.000000 4581414.000000 505.164032
      vertex 677599.000000 4581439.000000 516.668030
    endloop
  endfacet
  facet normal 330.300140 42.700195 625.000000
    outer loop
      vertex 677624.000000 4581414.000000 505.164032
      vertex 677624.000000 4581439.000000 503.456024
      vertex 677599.000000 4581439.000000 516.668030
    endloop
  endfacet
  facet normal 330.300140 162.699890 625.000000
    outer loop
      vertex 677599.000000 4581439.000000 516.668030
      vertex 677624.000000 4581439.000000 503.456024
      vertex 677599.000000 4581464.000000 510.160034
    endloop
  endfacet
  facet normal 391.100311 223.500061 625.000000
    outer loop
      vertex 677624.000000 4581439.000000 503.456024
      vertex 677624.000000 4581464.000000 494.516022
      vertex 677599.000000 4581464.000000 510.160034
    endloop
  endfacet
  facet normal 391.100311 492.495728 625.000000
    outer loop
      vertex 677599.000000 4581464.000000 510.160034
      vertex 677624.000000 4581464.000000 494.516022
      vertex 677599.000000 4581489.000000 490.460205
    endloop
  endfacet
  facet normal 54.286957 155.682373 625.000000
    outer loop
      vertex 677624.000000 4581464.000000 494.516022
      vertex 677624.000000 4581489.000000 488.288727
      vertex 677599.000000 4581489.000000 490.460205
    endloop
  endfacet
  facet normal 54.286957 48.780823 625.000000
    outer loop
      vertex 677599.000000 4581489.000000 490.460205
      vertex 677624.000000 4581489.000000 488.288727
      vertex 677599.000000 4581514.000000 488.508972
    endloop
  endfacet
  facet normal 10.018158 4.512024 625.000000
    outer loop
      vertex 677624.000000 4581489.000000 488.288727
      vertex 677624.000000 4581514.000000 488.108246
      vertex 677599.000000 4581514.000000 488.508972
    endloop
  endfacet
  facet normal 10.018158 -484.576416 625.000000
    outer loop
      vertex 677599.000000 4581514.000000 488.508972
      vertex 677624.000000 4581514.000000 488.108246
      vertex 677599.000000 4581539.000000 507.892029
    endloop
  endfacet
  facet normal -35.199738 -529.794312 625.000000
    outer loop
      vertex 677624.000000 4581514.000000 488.108246
      vertex 677624.000000 4581539.000000 509.300018
      vertex 677599.000000 4581539.000000 507.892029
    endloop
  endfacet
  facet normal -25.700378 296.799469 625.000000
    outer loop
      vertex 677624.000000 4581389.000000 517.036011
      vertex 677649.000000 4581389.000000 518.064026
      vertex 677624.000000 4581414.000000 505.164032
    endloop
  endfacet
  facet normal 145.899963 468.399811 625.000000
    outer loop
      vertex 677649.000000 4581389.000000 518.064026
      vertex 677649.000000 4581414.000000 499.328033
      vertex 677624.000000 4581414.000000 505.164032
    endloop
  endfacet
  facet normal 145.899963 42.700195 625.000000
    outer loop
      vertex 677624.000000 4581414.000000 505.164032
      vertex 677649.000000 4581414.000000 499.328033
      vertex 677624.000000 4581439.000000 503.456024
    endloop
  endfacet
  facet normal 304.299927 201.100159 625.000000
    outer loop
      vertex 677649.000000 4581414.000000 499.328033
      vertex 677649.000000 4581439.000000 491.284027
      vertex 677624.000000 4581439.000000 503.456024
    endloop
  endfacet
  facet normal 304.299927 223.500061 625.000000
    outer loop
      vertex 677624.000000 4581439.000000 503.456024
      vertex 677649.000000 4581439.000000 491.284027
      vertex 677624.000000 4581464.000000 494.516022
    endloop
  endfacet
  facet normal 178.700256 97.900391 625.000000
    outer loop
      vertex 677649.000000 4581439.000000 491.284027
      vertex 677649.000000 4581464.000000 487.368011
      vertex 677624.000000 4581464.000000 494.516022
    endloop
  endfacet
  facet normal 178.700256 155.682373 625.000000
    outer loop
      vertex 677624.000000 4581464.000000 494.516022
      vertex 677649.000000 4581464.000000 487.368011
      vertex 677624.000000 4581489.000000 488.288727
    endloop
  endfacet
  facet normal 18.011475 -5.006409 625.000000
    outer loop
      vertex 677649.000000 4581464.000000 487.368011
      vertex 677649.000000 4581489.000000 487.568268
      vertex 677624.000000 4581489.000000 488.288727
    endloop
  endfacet
  facet normal 18.011475 4.512024 625.000000
    outer loop
      vertex 677624.000000 4581489.000000 488.288727
      vertex 677649.000000 4581489.000000 487.568268
      vertex 677624.000000 4581514.000000 488.108246
    endloop
  endfacet
  facet normal 7.173157 -6.326294 625.000000
    outer loop
      vertex 677649.000000 4581489.000000 487.568268
      vertex 677649.000000 4581514.000000 487.821320
      vertex 677624.000000 4581514.000000 488.108246
    endloop
  endfacet
  facet normal 7.173157 -529.794312 625.000000
    outer loop
      vertex 677624.000000 4581514.000000 488.108246
      vertex 677649.000000 4581514.000000 487.821320
      vertex 677624.000000 4581539.000000 509.300018
    endloop
  endfacet
  facet normal -234.600067 -771.567535 625.000000
    outer loop
      vertex 677649.000000 4581514.000000 487.821320
      vertex 677649.000000 4581539.000000 518.684021
      vertex 677624.000000 4581539.000000 509.300018
    endloop
  endfacet
  facet normal -25.500488 468.399811 625.000000
    outer loop
      vertex 677649.000000 4581389.000000 518.064026
      vertex 677674.000000 4581389.000000 519.084045
      vertex 677649.000000 4581414.000000 499.328033
    endloop
  endfacet
  facet normal -64.099884 429.800415 625.000000
    outer loop
      vertex 677674.000000 4581389.000000 519.084045
      vertex 677674.000000 4581414.000000 501.892029
      vertex 677649.000000 4581414.000000 499.328033
    endloop
  endfacet
  facet normal -64.099884 201.100159 625.000000
    outer loop
      vertex 677649.000000 4581414.000000 499.328033
      vertex 677674.000000 4581414.000000 501.892029
      vertex 677649.000000 4581439.000000 491.284027
    endloop
  endfacet
  facet normal 101.699829 366.899872 625.000000
    outer loop
      vertex 677674.000000 4581414.000000 501.892029
      vertex 677674.000000 4581439.000000 487.216034
      vertex 677649.000000 4581439.000000 491.284027
    endloop
  endfacet
  facet normal 101.699829 97.900391 625.000000
    outer loop
      vertex 677649.000000 4581439.000000 491.284027
      vertex 677674.000000 4581439.000000 487.216034
      vertex 677649.000000 4581464.000000 487.368011
    endloop
  endfacet
  facet normal 13.099670 9.300232 625.000000
    outer loop
      vertex 677674.000000 4581439.000000 487.216034
      vertex 677674.000000 4581464.000000 486.844025
      vertex 677649.000000 4581464.000000 487.368011
    endloop
  endfacet
  facet normal 13.099670 -5.006409 625.000000
    outer loop
      vertex 677649.000000 4581464.000000 487.368011
      vertex 677674.000000 4581464.000000 486.844025
      vertex 677649.000000 4581489.000000 487.568268
    endloop
  endfacet
  facet normal 21.369934 3.263855 625.000000
    outer loop
      vertex 677674.000000 4581464.000000 486.844025
      vertex 677674.000000 4581489.000000 486.713470
      vertex 677649.000000 4581489.000000 487.568268
    endloop
  endfacet
  facet normal 21.369934 -6.326294 625.000000
    outer loop
      vertex 677649.000000 4581489.000000 487.568268
      vertex 677674.000000 4581489.000000 486.713470
      vertex 677649.000000 4581514.000000 487.821320
    endloop
  endfacet
  facet normal -586.164856 -613.861084 625.000000
    outer loop
      vertex 677674.000000 4581489.000000 486.713470
      vertex 677674.000000 4581514.000000 511.267914
      vertex 677649.000000 4581514.000000 487.821320
    endloop
  endfacet
  facet normal -586.164856 -771.567535 625.000000
    outer loop
      vertex 677649.000000 4581514.000000 487.821320
      vertex 677674.000000 4581514.000000 511.267914
      vertex 677649.000000 4581539.000000 518.684021
    endloop
  endfacet
  facet normal -77.600098 -263.002777 625.000000
    outer loop
      vertex 677674.000000 4581514.000000 511.267914
      vertex 677674.000000 4581539.000000 521.788025
      vertex 677649.000000 4581539.000000 518.684021
    endloop
  endfacet
  facet normal 204.200745 429.800415 625.000000
    outer loop
      vertex 677674.000000 4581389.000000 519.084045
      vertex 677699.000000 4581389.000000 510.916016
      vertex 677674.000000 4581414.000000 501.892029
    endloop
  endfacet
  facet normal 122.800446 348.400116 625.000000
    outer loop
      vertex 677699.000000 4581389.000000 510.916016
      vertex 677699.000000 4581414.000000 496.980011
      vertex 677674.000000 4581414.000000 501.892029
    endloop
  endfacet
  facet normal 122.800446 366.899872 625.000000
    outer loop
      vertex 677674.000000 4581414.000000 501.892029
      vertex 677699.000000 4581414.000000 496.980011
      vertex 677674.000000 4581439.000000 487.216034
    endloop
  endfacet
  facet normal 41.600037 285.699463 625.000000
    outer loop
      vertex 677699.000000 4581414.000000 496.980011
      vertex 677699.000000 4581439.000000 485.552032
      vertex 677674.000000 4581439.000000 487.216034
    endloop
  endfacet
  facet normal 41.600037 9.300232 625.000000
    outer loop
      vertex 677674.000000 4581439.000000 487.216034
      vertex 677699.000000 4581439.000000 485.552032
      vertex 677674.000000 4581464.000000 486.844025
    endloop
  endfacet
  facet normal 39.299774 6.999969 625.000000
    outer loop
      vertex 677699.000000 4581439.000000 485.552032
      vertex 677699.000000 4581464.000000 485.272034
      vertex 677674.000000 4581464.000000 486.844025
    endloop
  endfacet
  facet normal 39.299774 3.263855 625.000000
    outer loop
      vertex 677674.000000 4581464.000000 486.844025
      vertex 677699.000000 4581464.000000 485.272034
      vertex 677674.000000 4581489.000000 486.713470
    endloop
  endfacet
  facet normal -254.216766 -290.252686 625.000000
    outer loop
      vertex 677699.000000 4581464.000000 485.272034
      vertex 677699.000000 4581489.000000 496.882141
      vertex 677674.000000 4581489.000000 486.713470
    endloop
  endfacet
  facet normal -254.216766 -613.861084 625.000000
    outer loop
      vertex 677674.000000 4581489.000000 486.713470
      vertex 677699.000000 4581489.000000 496.882141
      vertex 677674.000000 4581514.000000 511.267914
    endloop
  endfacet
  facet normal -155.352020 -514.996338 625.000000
    outer loop
      vertex 677699.000000 4581489.000000 496.882141
      vertex 677699.000000 4581514.000000 517.481995
      vertex 677674.000000 4581514.000000 511.267914
    endloop
  endfacet
  facet normal -155.352020 -263.002777 625.000000
    outer loop
      vertex 677674.000000 4581514.000000 511.267914
      vertex 677699.000000 4581514.000000 517.481995
      vertex 677674.000000 4581539.000000 521.788025
    endloop
  endfacet
  facet normal -32.899475 -140.550232 625.000000
    outer loop
      vertex 677699.000000 4581514.000000 517.481995
      vertex 677699.000000 4581539.000000 523.104004
      vertex 677674.000000 4581539.000000 521.788025
    endloop
  endfacet
  facet normal -48.100281 348.400116 625.000000
    outer loop
      vertex 677699.000000 4581389.000000 510.916016
      vertex 677724.000000 4581389.000000 512.840027
      vertex 677699.000000 4581414.000000 496.980011
    endloop
  endfacet
  facet normal 151.399994 547.900391 625.000000
    outer loop
      vertex 677724.000000 4581389.000000 512.840027
      vertex 677724.000000 4581414.000000 490.924011
      vertex 677699.000000 4581414.000000 496.980011
    endloop
  endfacet
  facet normal 151.399994 285.699463 625.000000
    outer loop
      vertex 677699.000000 4581414.000000 496.980011
      vertex 677724.000000 4581414.000000 490.924011
      vertex 677699.000000 4581439.000000 485.552032
    endloop
  endfacet
  facet normal 13.899994 148.199463 625.000000
    outer loop
      vertex 677724.000000 4581414.000000 490.924011
      vertex 677724.000000 4581439.000000 484.996033
      vertex 677699.000000 4581439.000000 485.552032
    endloop
  endfacet
  facet normal 13.899994 6.999969 625.000000
    outer loop
      vertex 677699.000000 4581439.000000 485.552032
      vertex 677724.000000 4581439.000000 484.996033
      vertex 677699.000000 4581464.000000 485.272034
    endloop
  endfacet
  facet normal -103.299713 -110.199738 625.000000
    outer loop
      vertex 677724.000000 4581439.000000 484.996033
      vertex 677724.000000 4581464.000000 489.404022
      vertex 677699.000000 4581464.000000 485.272034
    endloop
  endfacet
  facet normal -103.299713 -290.252686 625.000000
    outer loop
      vertex 677699.000000 4581464.000000 485.272034
      vertex 677724.000000 4581464.000000 489.404022
      vertex 677699.000000 4581489.000000 496.882141
    endloop
  endfacet
  facet normal -158.539581 -345.492554 625.000000
    outer loop
      vertex 677724.000000 4581464.000000 489.404022
      vertex 677724.000000 4581489.000000 503.223724
      vertex 677699.000000 4581489.000000 496.882141
    endloop
  endfacet
  facet normal -158.539581 -514.996338 625.000000
    outer loop
      vertex 677699.000000 4581489.000000 496.882141
      vertex 677724.000000 4581489.000000 503.223724
      vertex 677699.000000 4581514.000000 517.481995
    endloop
  endfacet
  facet normal -75.299072 -431.755829 625.000000
    outer loop
      vertex 677724.000000 4581489.000000 503.223724
      vertex 677724.000000 4581514.000000 520.493958
      vertex 677699.000000 4581514.000000 517.481995
    endloop
  endfacet
  facet normal -75.299072 -140.550232 625.000000
    outer loop
      vertex 677699.000000 4581514.000000 517.481995
      vertex 677724.000000 4581514.000000 520.493958
      vertex 677699.000000 4581539.000000 523.104004
    endloop
  endfacet
  facet normal 5.799866 -59.451294 625.000000
    outer loop
      vertex 677724.000000 4581514.000000 520.493958
      vertex 677724.000000 4581539.000000 522.872009
      vertex 677699.000000 4581539.000000 523.104004
    endloop
  endfacet
  facet normal -197.550964 547.900391 625.000000
    outer loop
      vertex 677724.000000 4581389.000000 512.840027
      vertex 677749.000000 4581389.000000 520.742065
      vertex 677724.000000 4581414.000000 490.924011
    endloop
  endfacet
  facet normal -30.025482 715.425873 625.000000
    outer loop
      vertex 677749.000000 4581389.000000 520.742065
      vertex 677749.000000 4581414.000000 492.125031
      vertex 677724.000000 4581414.000000 490.924011
    endloop
  endfacet
  facet normal -30.025482 148.199463 625.000000
    outer loop
      vertex 677724.000000 4581414.000000 490.924011
      vertex 677749.000000 4581414.000000 492.125031
      vertex 677724.000000 4581439.000000 484.996033
    endloop
  endfacet
  facet normal 9.799957 188.024902 625.000000
    outer loop
      vertex 677749.000000 4581414.000000 492.125031
      vertex 677749.000000 4581439.000000 484.604034
      vertex 677724.000000 4581439.000000 484.996033
    endloop
  endfacet
  facet normal 9.799957 -110.199738 625.000000
    outer loop
      vertex 677724.000000 4581439.000000 484.996033
      vertex 677749.000000 4581439.000000 484.604034
      vertex 677724.000000 4581464.000000 489.404022
    endloop
  endfacet
  facet normal 61.125183 -58.874512 625.000000
    outer loop
      vertex 677749.000000 4581439.000000 484.604034
      vertex 677749.000000 4581464.000000 486.959015
      vertex 677724.000000 4581464.000000 489.404022
    endloop
  endfacet
  facet normal 61.125183 -345.492554 625.000000
    outer loop
      vertex 677724.000000 4581464.000000 489.404022
      vertex 677749.000000 4581464.000000 486.959015
      vertex 677724.000000 4581489.000000 503.223724
    endloop
  endfacet
  facet normal 105.469513 -301.148224 625.000000
    outer loop
      vertex 677749.000000 4581464.000000 486.959015
      vertex 677749.000000 4581489.000000 499.004944
      vertex 677724.000000 4581489.000000 503.223724
    endloop
  endfacet
  facet normal 105.469513 -431.755829 625.000000
    outer loop
      vertex 677724.000000 4581489.000000 503.223724
      vertex 677749.000000 4581489.000000 499.004944
      vertex 677724.000000 4581514.000000 520.493958
    endloop
  endfacet
  facet normal 9.774780 -527.450562 625.000000
    outer loop
      vertex 677749.000000 4581489.000000 499.004944
      vertex 677749.000000 4581514.000000 520.102966
      vertex 677724.000000 4581514.000000 520.493958
    endloop
  endfacet
  facet normal 9.774780 -59.451294 625.000000
    outer loop
      vertex 677724.000000 4581514.000000 520.493958
      vertex 677749.000000 4581514.000000 520.102966
      vertex 677724.000000 4581539.000000 522.872009
    endloop
  endfacet
  facet normal 143.875122 74.649048 625.000000
    outer loop
      vertex 677749.000000 4581514.000000 520.102966
      vertex 677749.000000 4581539.000000 517.117004
      vertex 677724.000000 4581539.000000 522.872009
    endloop
  endfacet
  facet normal 0.000000 -4054.599762 0.000000
    outer loop
      vertex 677449.000000 4581539.000000 510.920013
      vertex 677474.000000 4581539.000000 511.704010
      vertex 677449.000000 4581539.000000 673.104004
    endloop
  endfacet
  facet normal 0.000000 -4034.999847 0.000000
    outer loop
      vertex 677474.000000 4581539.000000 511.704010
      vertex 677474.000000 4581539.000000 673.104004
      vertex 677449.000000 4581539.000000 673.104004
    endloop
  endfacet
  facet normal 0.000000 -4034.999847 0.000000
    outer loop
      vertex 677474.000000 4581539.000000 511.704010
      vertex 677499.000000 4581539.000000 512.920044
      vertex 677474.000000 4581539.000000 673.104004
    endloop
  endfacet
  facet normal 0.000000 -4004.598999 0.000000
    outer loop
      vertex 677499.000000 4581539.000000 512.920044
      vertex 677499.000000 4581539.000000 673.104004
      vertex 677474.000000 4581539.000000 673.104004
    endloop
  endfacet
  facet normal 0.000000 -4004.598999 0.000000
    outer loop
      vertex 677499.000000 4581539.000000 512.920044
      vertex 677524.000000 4581539.000000 514.507996
      vertex 677499.000000 4581539.000000 673.104004
    endloop
  endfacet
  facet normal 0.000000 -3964.900208 0.000000
    outer loop
      vertex 677524.000000 4581539.000000 514.507996
      vertex 677524.000000 4581539.000000 673.104004
      vertex 677499.000000 4581539.000000 673.104004
    endloop
  endfacet
  facet normal 0.000000 -3964.900208 0.000000
    outer loop
      vertex 677524.000000 4581539.000000 514.507996
      vertex 677549.000000 4581539.000000 515.107056
      vertex 677524.000000 4581539.000000 673.104004
    endloop
  endfacet
  facet normal 0.000000 -3949.923706 0.000000
    outer loop
      vertex 677549.000000 4581539.000000 515.107056
      vertex 677549.000000 4581539.000000 673.104004
      vertex 677524.000000 4581539.000000 673.104004
    endloop
  endfacet
  facet normal 0.000000 -3949.923706 0.000000
    outer loop
      vertex 677549.000000 4581539.000000 515.107056
      vertex 677574.000000 4581539.000000 504.265015
      vertex 677549.000000 4581539.000000 673.104004
    endloop
  endfacet
  facet normal 0.000000 -4220.974731 0.000000
    outer loop
      vertex 677574.000000 4581539.000000 504.265015
      vertex 677574.000000 4581539.000000 673.104004
      vertex 677549.000000 4581539.000000 673.104004
    endloop
  endfacet
  facet normal 0.000000 -4220.974731 0.000000
    outer loop
      vertex 677574.000000 4581539.000000 504.265015
      vertex 677599.000000 4581539.000000 507.892029
      vertex 677574.000000 4581539.000000 673.104004
    endloop
  endfacet
  facet normal 0.000000 -4130.299377 0.000000
    outer loop
      vertex 677599.000000 4581539.000000 507.892029
      vertex 677599.000000 4581539.000000 673.104004
      vertex 677574.000000 4581539.000000 673.104004
    endloop
  endfacet
  facet normal 0.000000 -4130.299377 0.000000
    outer loop
      vertex 677599.000000 4581539.000000 507.892029
      vertex 677624.000000 4581539.000000 509.300018
      vertex 677599.000000 4581539.000000 673.104004
    endloop
  endfacet
  facet normal 0.000000 -4095.099640 0.000000
    outer loop
      vertex 677624.000000 4581539.000000 509.300018
      vertex 677624.000000 4581539.000000 673.104004
      vertex 677599.000000 4581539.000000 673.104004
    endloop
  endfacet
  facet normal 0.000000 -4095.099640 0.000000
    outer loop
      vertex 677624.000000 4581539.000000 509.300018
      vertex 677649.000000 4581539.000000 518.684021
      vertex 677624.000000 4581539.000000 673.104004
    endloop
  endfacet
  facet normal 0.000000 -3860.499573 0.000000
    outer loop
      vertex 677649.000000 4581539.000000 518.684021
      vertex 677649.000000 4581539.000000 673.104004
      vertex 677624.000000 4581539.000000 673.104004
    endloop
  endfacet
  facet normal 0.000000 -3860.499573 0.000000
    outer loop
      vertex 677649.000000 4581539.000000 518.684021
      vertex 677674.000000 4581539.000000 521.788025
      vertex 677649.000000 4581539.000000 673.104004
    endloop
  endfacet
  facet normal 0.000000 -3782.899475 0.000000
    outer loop
      vertex 677674.000000 4581539.000000 521.788025
      vertex 677674.000000 4581539.000000 673.104004
      vertex 677649.000000 4581539.000000 673.104004
    endloop
  endfacet
  facet normal 0.000000 -3782.899475 0.000000
    outer loop
      vertex 677674.000000 4581539.000000 521.788025
      vertex 677699.000000 4581539.000000 523.104004
      vertex 677674.000000 4581539.000000 673.104004
    endloop
  endfacet
  facet normal 0.000000 -3750.000000 0.000000
    outer loop
      vertex 677699.000000 4581539.000000 523.104004
      vertex 677699.000000 4581539.000000 673.104004
      vertex 677674.000000 4581539.000000 673.104004
    endloop
  endfacet
  facet normal 0.000000 -3750.000000 0.000000
    outer loop
      vertex 677699.000000 4581539.000000 523.104004
      vertex 677724.000000 4581539.000000 522.872009
      vertex 677699.000000 4581539.000000 673.104004
    endloop
  endfacet
  facet normal 0.000000 -3755.799866 0.000000
    outer loop
      vertex 677724.000000 4581539.000000 522.872009
      vertex 677724.000000 4581539.000000 673.104004
      vertex 677699.000000 4581539.000000 673.104004
    endloop
  endfacet
  facet normal 0.000000 -3755.799866 0.000000
    outer loop
      vertex 677724.000000 4581539.000000 522.872009
      vertex 677749.000000 4581539.000000 517.117004
      vertex 677724.000000 4581539.000000 673.104004
    endloop
  endfacet
  facet normal 0.000000 -3899.674988 0.000000
    outer loop
      vertex 677749.000000 4581539.000000 517.117004
      vertex 677749.000000 4581539.000000 673.104004
      vertex 677724.000000 4581539.000000 673.104004
    endloop
  endfacet
  facet normal 0.000000 -3975.498962 0.000000
    outer loop
      vertex 677449.000000 4581389.000000 514.084045
      vertex 677474.000000 4581389.000000 514.040039
      vertex 677449.000000 4581389.000000 673.104004
    endloop
  endfacet
  facet normal 0.000000 -3976.599121 0.000000
    outer loop
      vertex 677474.000000 4581389.000000 514.040039
      vertex 677474.000000 4581389.000000 673.104004
      vertex 677449.000000 4581389.000000 673.104004
    endloop
  endfacet
  facet normal 0.000000 -3976.599121 0.000000
    outer loop
      vertex 677474.000000 4581389.000000 514.040039
      vertex 677499.000000 4581389.000000 513.032043
      vertex 677474.000000 4581389.000000 673.104004
    endloop
  endfacet
  facet normal 0.000000 -4001.799011 0.000000
    outer loop
      vertex 677499.000000 4581389.000000 513.032043
      vertex 677499.000000 4581389.000000 673.104004
      vertex 677474.000000 4581389.000000 673.104004
    endloop
  endfacet
  facet normal 0.000000 -4001.799011 0.000000
    outer loop
      vertex 677499.000000 4581389.000000 513.032043
      vertex 677524.000000 4581389.000000 512.744019
      vertex 677499.000000 4581389.000000 673.104004
    endloop
  endfacet
  facet normal 0.000000 -4008.999634 0.000000
    outer loop
      vertex 677524.000000 4581389.000000 512.744019
      vertex 677524.000000 4581389.000000 673.104004
      vertex 677499.000000 4581389.000000 673.104004
    endloop
  endfacet
  facet normal 0.000000 -4008.999634 0.000000
    outer loop
      vertex 677524.000000 4581389.000000 512.744019
      vertex 677549.000000 4581389.000000 514.234009
      vertex 677524.000000 4581389.000000 673.104004
    endloop
  endfacet
  facet normal 0.000000 -3971.749878 0.000000
    outer loop
      vertex 677549.000000 4581389.000000 514.234009
      vertex 677549.000000 4581389.000000 673.104004
      vertex 677524.000000 4581389.000000 673.104004
    endloop
  endfacet
  facet normal 0.000000 -3971.749878 0.000000
    outer loop
      vertex 677549.000000 4581389.000000 514.234009
      vertex 677574.000000 4581389.000000 517.548035
      vertex 677549.000000 4581389.000000 673.104004
    endloop
  endfacet
  facet normal 0.000000 -3888.899231 0.000000
    outer loop
      vertex 677574.000000 4581389.000000 517.548035
      vertex 677574.000000 4581389.000000 673.104004
      vertex 677549.000000 4581389.000000 673.104004
    endloop
  endfacet
  facet normal 0.000000 -3888.899231 0.000000
    outer loop
      vertex 677574.000000 4581389.000000 517.548035
      vertex 677599.000000 4581389.000000 518.680054
      vertex 677574.000000 4581389.000000 673.104004
    endloop
  endfacet
  facet normal 0.000000 -3860.598755 0.000000
    outer loop
      vertex 677599.000000 4581389.000000 518.680054
      vertex 677599.000000 4581389.000000 673.104004
      vertex 677574.000000 4581389.000000 673.104004
    endloop
  endfacet
  facet normal 0.000000 -3860.598755 0.000000
    outer loop
      vertex 677599.000000 4581389.000000 518.680054
      vertex 677624.000000 4581389.000000 517.036011
      vertex 677599.000000 4581389.000000 673.104004
    endloop
  endfacet
  facet normal 0.000000 -3901.699829 0.000000
    outer loop
      vertex 677624.000000 4581389.000000 517.036011
      vertex 677624.000000 4581389.000000 673.104004
      vertex 677599.000000 4581389.000000 673.104004
    endloop
  endfacet
  facet normal 0.000000 -3901.699829 0.000000
    outer loop
      vertex 677624.000000 4581389.000000 517.036011
      vertex 677649.000000 4581389.000000 518.064026
      vertex 677624.000000 4581389.000000 673.104004
    endloop
  endfacet
  facet normal 0.000000 -3875.999451 0.000000
    outer loop
      vertex 677649.000000 4581389.000000 518.064026
      vertex 677649.000000 4581389.000000 673.104004
      vertex 677624.000000 4581389.000000 673.104004
    endloop
  endfacet
  facet normal 0.000000 -3875.999451 0.000000
    outer loop
      vertex 677649.000000 4581389.000000 518.064026
      vertex 677674.000000 4581389.000000 519.084045
      vertex 677649.000000 4581389.000000 673.104004
    endloop
  endfacet
  facet normal 0.000000 -3850.498962 0.000000
    outer loop
      vertex 677674.000000 4581389.000000 519.084045
      vertex 677674.000000 4581389.000000 673.104004
      vertex 677649.000000 4581389.000000 673.104004
    endloop
  endfacet
  facet normal 0.000000 -3850.498962 0.000000
    outer loop
      vertex 677674.000000 4581389.000000 519.084045
      vertex 677699.000000 4581389.000000 510.916016
      vertex 677674.000000 4581389.000000 673.104004
    endloop
  endfacet
  facet normal 0.000000 -4054.699707 0.000000
    outer loop
      vertex 677699.000000 4581389.000000 510.916016
      vertex 677699.000000 4581389.000000 673.104004
      vertex 677674.000000 4581389.000000 673.104004
    endloop
  endfacet
  facet normal 0.000000 -4054.699707 0.000000
    outer loop
      vertex 677699.000000 4581389.000000 510.916016
      vertex 677724.000000 4581389.000000 512.840027
      vertex 677699.000000 4581389.000000 673.104004
    endloop
  endfacet
  facet normal 0.000000 -4006.599426 0.000000
    outer loop
      vertex 677724.000000 4581389.000000 512.840027
      vertex 677724.000000 4581389.000000 673.104004
      vertex 677699.000000 4581389.000000 673.104004
    endloop
  endfacet
  facet normal 0.000000 -4006.599426 0.000000
    outer loop
      vertex 677724.000000 4581389.000000 512.840027
      vertex 677749.000000 4581389.000000 520.742065
      vertex 677724.000000 4581389.000000 673.104004
    endloop
  endfacet
  facet normal 0.000000 -3809.048462 0.000000
    outer loop
      vertex 677749.000000 4581389.000000 520.742065
      vertex 677749.000000 4581389.000000 673.104004
      vertex 677724.000000 4581389.000000 673.104004
    endloop
  endfacet
  facet normal 3975.498962 -0.000000 0.000000
    outer loop
      vertex 677449.000000 4581389.000000 514.084045
      vertex 677449.000000 4581414.000000 512.104004
      vertex 677449.000000 4581389.000000 673.104004
    endloop
  endfacet
  facet normal 4025.000000 0.000000 -0.000000
    outer loop
      vertex 677449.000000 4581414.000000 512.104004
      vertex 677449.000000 4581414.000000 673.104004
      vertex 677449.000000 4581389.000000 673.104004
    endloop
  endfacet
  facet normal 4025.000000 -0.000000 0.000000
    outer loop
      vertex 677449.000000 4581414.000000 512.104004
      vertex 677449.000000 4581439.000000 508.092010
      vertex 677449.000000 4581414.000000 673.104004
    endloop
  endfacet
  facet normal 4125.299835 0.000000 -0.000000
    outer loop
      vertex 677449.000000 4581439.000000 508.092010
      vertex 677449.000000 4581439.000000 673.104004
      vertex 677449.000000 4581414.000000 673.104004
    endloop
  endfacet
  facet normal 4125.299835 -0.000000 0.000000
    outer loop
      vertex 677449.000000 4581439.000000 508.092010
      vertex 677449.000000 4581464.000000 492.416016
      vertex 677449.000000 4581439.000000 673.104004
    endloop
  endfacet
  facet normal 4517.199707 0.000000 -0.000000
    outer loop
      vertex 677449.000000 4581464.000000 492.416016
      vertex 677449.000000 4581464.000000 673.104004
      vertex 677449.000000 4581439.000000 673.104004
    endloop
  endfacet
  facet normal 4517.199707 0.000000 0.000000
    outer loop
      vertex 677449.000000 4581464.000000 492.416016
      vertex 677449.000000 4581489.000000 504.579163
      vertex 677449.000000 4581464.000000 673.104004
    endloop
  endfacet
  facet normal 4213.121033 0.000000 -0.000000
    outer loop
      vertex 677449.000000 4581489.000000 504.579163
      vertex 677449.000000 4581489.000000 673.104004
      vertex 677449.000000 4581464.000000 673.104004
    endloop
  endfacet
  facet normal 4213.121033 0.000000 0.000000
    outer loop
      vertex 677449.000000 4581489.000000 504.579163
      vertex 677449.000000 4581514.000000 509.246155
      vertex 677449.000000 4581489.000000 673.104004
    endloop
  endfacet
  facet normal 4096.446228 0.000000 -0.000000
    outer loop
      vertex 677449.000000 4581514.000000 509.246155
      vertex 677449.000000 4581514.000000 673.104004
      vertex 677449.000000 4581489.000000 673.104004
    endloop
  endfacet
  facet normal 4096.446228 0.000000 0.000000
    outer loop
      vertex 677449.000000 4581514.000000 509.246155
      vertex 677449.000000 4581539.000000 510.920013
      vertex 677449.000000 4581514.000000 673.104004
    endloop
  endfacet
  facet normal 4054.599762 0.000000 -0.000000
    outer loop
      vertex 677449.000000 4581539.000000 510.920013
      vertex 677449.000000 4581539.000000 673.104004
      vertex 677449.000000 4581514.000000 673.104004
    endloop
  endfacet
  facet normal 3809.048462 -0.000000 0.000000
    outer loop
      vertex 677749.000000 4581389.000000 520.742065
      vertex 677749.000000 4581414.000000 492.125031
      vertex 677749.000000 4581389.000000 673.104004
    endloop
  endfacet
  facet normal 4524.474335 0.000000 -0.000000
    outer loop
      vertex 677749.000000 4581414.000000 492.125031
      vertex 677749.000000 4581414.000000 673.104004
      vertex 677749.000000 4581389.000000 673.104004
    endloop
  endfacet
  facet normal 4524.474335 -0.000000 0.000000
    outer loop
      vertex 677749.000000 4581414.000000 492.125031
      vertex 677749.000000 4581439.000000 484.604034
      vertex 677749.000000 4581414.000000 673.104004
    endloop
  endfacet
  facet normal 4712.499237 0.000000 -0.000000
    outer loop
      vertex 677749.000000 4581439.000000 484.604034
      vertex 677749.000000 4581439.000000 673.104004
      vertex 677749.000000 4581414.000000 673.104004
    endloop
  endfacet
  facet normal 4712.499237 0.000000 0.000000
    outer loop
      vertex 677749.000000 4581439.000000 484.604034
      vertex 677749.000000 4581464.000000 486.959015
      vertex 677749.000000 4581439.000000 673.104004
    endloop
  endfacet
  facet normal 4653.624725 0.000000 -0.000000
    outer loop
      vertex 677749.000000 4581464.000000 486.959015
      vertex 677749.000000 4581464.000000 673.104004
      vertex 677749.000000 4581439.000000 673.104004
    endloop
  endfacet
  facet normal 4653.624725 0.000000 0.000000
    outer loop
      vertex 677749.000000 4581464.000000 486.959015
      vertex 677749.000000 4581489.000000 499.004944
      vertex 677749.000000 4581464.000000 673.104004
    endloop
  endfacet
  facet normal 4352.476501 0.000000 -0.000000
    outer loop
      vertex 677749.000000 4581489.000000 499.004944
      vertex 677749.000000 4581489.000000 673.104004
      vertex 677749.000000 4581464.000000 673.104004
    endloop
  endfacet
  facet normal 4352.476501 0.000000 0.000000
    outer loop
      vertex 677749.000000 4581489.000000 499.004944
      vertex 677749.000000 4581514.000000 520.102966
      vertex 677749.000000 4581489.000000 673.104004
    endloop
  endfacet
  facet normal 3825.025940 0.000000 -0.000000
    outer loop
      vertex 677749.000000 4581514.000000 520.102966
      vertex 677749.000000 4581514.000000 673.104004
      vertex 677749.000000 4581489.000000 673.104004
    endloop
  endfacet
  facet normal 3825.025940 -0.000000 0.000000
    outer loop
      vertex 677749.000000 4581514.000000 520.102966
      vertex 677749.000000 4581539.000000 517.117004
      vertex 677749.000000 4581514.000000 673.104004
    endloop
  endfacet
  facet normal 3899.674988 0.000000 -0.000000
    outer loop
      vertex 677749.000000 4581539.000000 517.117004
      vertex 677749.000000 4581539.000000 673.104004
      vertex 677749.000000 4581514.000000 673.104004
    endloop
  endfacet
  facet normal 0.000000 0.000000 -45000.000000
    outer loop
      vertex 677449.000000 4581539.000000 673.104004
      vertex 677749.000000 4581389.000000 673.104004
      vertex 677449.000000 4581389.000000 673.104004
    endloop
  endfacet
  facet normal 0.000000 0.000000 -45000.000000
    outer loop
      vertex 677449.000000 4581539.000000 673.104004
      vertex 677749.000000 4581539.000000 673.104004
      vertex 677749.000000 4581389.000000 673.104004
    endloop
  endfacet
endsolid Vec<Triangle>
